<svg xmlns="http://www.w3.org/2000/svg" width="271" height="301" viewBox="0 0 271 301" fill="none">
<g clip-path="url(#clip0_22_91)">
<path d="M227.221 34.6417C247.502 53.357 261.881 75.4527 267.679 102.378C276.779 144.634 267.091 182.467 239.675 215.84C228.801 229.078 215.688 239.746 201.484 249.102C189.616 256.919 179.177 266.43 168.504 275.7C160.391 282.745 152.104 289.598 143.703 296.298C137.107 301.557 134.475 301.41 127.992 296.122C120.836 290.286 113.666 284.462 106.669 278.438C90.4493 264.472 73.2195 251.826 56.1691 238.916C30.9168 219.795 12.4391 195.613 4.04481 164.508C-0.531768 147.549 -0.99943 130.445 1.51222 113.118C4.57762 91.9711 12.3279 72.7098 25.0863 55.6874C47.2245 26.1504 76.4828 8.11654 113.114 1.9755C135.237 -1.73335 156.902 -0.194454 178.154 6.37761C196.472 12.0424 212.675 21.748 227.221 34.6417ZM128.177 278.587C129.611 279.787 131.105 280.923 132.464 282.203C134.725 284.332 136.75 284.407 139.115 282.195C144.062 277.565 149.081 273.001 154.237 268.606C166.858 257.848 179.133 246.659 193.075 237.54C210.06 226.431 224.754 212.973 236.191 196.027C253.618 170.207 259.03 141.843 254.161 111.434C250.689 89.7506 241.085 70.6666 226.326 54.5718C203.833 30.0432 175.511 16.7889 142.367 14.6348C118.523 13.0851 95.9693 18.213 75.0874 30.2378C60.6102 38.5744 47.7768 48.843 38.1289 62.5002C25.5497 80.3066 17.1031 99.7612 15.2265 121.915C13.6639 140.362 16.0032 158.083 22.9053 175.115C32.1628 197.96 47.9009 215.71 67.4796 230.35C74.0402 235.255 81.4148 238.948 87.6807 244.249C101.065 255.571 114.419 266.931 128.177 278.587Z" fill="#05616E"/>
<path d="M93.2416 143.438C97.6217 138.247 101.362 132.875 105.754 127.993C122.36 109.53 152.612 109.901 168.722 131.563C176.347 141.818 184.603 151.465 193.497 160.62C199.715 167.02 204.086 174.373 205.365 183.53C207.115 196.059 198.034 212.347 186.212 217.349C174.175 222.443 163.18 220.113 152.667 213.228C147.674 209.959 142.715 206.769 136.352 206.631C130.151 206.496 124.995 208.879 120.08 212.22C114.115 216.274 107.755 219.491 100.487 220.217C89.0322 221.361 79.3828 217.541 72.654 208.158C62.2668 193.674 64.2982 174.608 77.2491 160.983C82.6464 155.305 88.034 149.622 93.2416 143.438ZM103.516 154.03C98.7644 160.429 93.2023 166.113 87.7088 171.848C82.764 177.011 80.9906 183.138 81.3787 190.136C81.8415 198.479 89.3171 205.682 97.7145 205.773C102.873 205.83 107.113 203.708 111.272 200.851C127.584 189.643 144.086 188.35 160.677 200.386C163.142 202.175 165.795 203.685 168.663 204.73C178.554 208.336 190.221 200.418 190.52 189.883C190.703 183.452 188.916 177.633 184.66 172.716C181.984 169.625 179.215 166.611 176.441 163.605C169.379 155.951 163.015 147.731 156.572 139.561C147.247 127.74 130.8 125.923 119.127 135.444C112.929 140.5 108.674 147.355 103.516 154.03Z" fill="#05616E"/>
<path d="M115.814 106.513C103.955 111.272 93.932 109.306 85.2634 100.215C73.8947 88.2919 69.4154 74.1775 73.5861 58.0312C76.5424 46.5862 83.9947 39.0042 95.782 36.6694C107.923 34.2644 117.642 38.9486 124.807 48.6359C134.77 62.1082 135.427 82.745 126.697 97.0216C124.134 101.213 120.429 104.21 115.814 106.513ZM112.033 91.7264C118.894 83.307 119.793 68.1102 113.831 59.1113C111.764 55.9901 109.395 53.0388 105.627 51.7763C97.3633 49.0074 88.0271 55.5786 87.1529 64.865C86.1675 75.3323 89.5472 84.147 97.4822 91.1363C102.391 95.4601 106.093 95.697 112.033 91.7264Z" fill="#05616E"/>
<path d="M173.07 36.4929C185.977 37.8864 195.997 47.2441 198.378 60.8466C200.92 75.3641 197.043 88.4979 187.371 99.5554C176.22 112.303 151.176 114.925 141.785 91.4532C135.927 76.8143 138.049 62.6164 146.422 49.6805C152.385 40.4687 161.572 36.1039 173.07 36.4929ZM173.539 92.2785C183.261 85.1748 187.244 69.5035 182.046 58.8086C178.068 50.6232 168.079 48.8168 161.51 55.0946C153.813 62.4507 151.291 76.5019 155.974 85.9452C159.967 93.9977 165.156 95.9987 173.539 92.2785Z" fill="#05616E"/>
<path d="M67.7346 92.2993C78.0347 99.6448 84.4974 109.161 86.0782 121.593C87.9431 136.258 77.8036 157.847 57.0303 156.94C49.4227 156.607 42.7797 153.566 37.773 148.049C26.589 135.725 23.3504 121.258 28.5767 105.425C33.3919 90.8367 52.8833 82.1687 67.7346 92.2993ZM43.1528 109.214C40.6874 113.324 40.5014 117.848 40.822 122.438C41.4129 130.898 47.5187 139.07 54.8523 141.307C60.1681 142.928 64.504 141.5 67.7838 137.05C76.6916 124.965 68.5777 108.32 58.3284 104.248C51.989 101.729 47.6684 103.043 43.1528 109.214Z" fill="#05616E"/>
<path d="M236.177 95.8752C245.192 106.024 246.102 117.72 243.114 129.924C241.21 137.696 237.807 144.876 231.226 150.071C214.166 163.538 191.531 155.779 186.105 134.672C181.788 117.88 192.25 95.3838 208.934 89.9365C219.316 86.5471 228.188 88.0859 236.177 95.8752ZM207.711 107.368C201.896 113.025 199.39 119.885 200.08 127.975C200.645 134.597 204.821 140.35 210.474 142.074C214.85 143.408 221.233 140.698 224.95 135.538C229.915 128.646 231.143 120.865 228.578 112.875C225.261 102.542 215.966 100.057 207.711 107.368Z" fill="#05616E"/>
<path d="M141.992 250.676C134.504 253.578 129.216 252.297 124.912 246.729C120.336 240.81 119.915 233.292 123.854 227.847C127.052 223.427 132.395 221.685 138.204 223.169C144.263 224.716 149.029 229.483 149.527 234.694C150.162 241.356 148.264 246.919 141.992 250.676Z" fill="#05616E"/>
<mask id="mask0_22_91" style="mask-type:alpha" maskUnits="userSpaceOnUse" x="0" y="0" width="271" height="301">
<path d="M227.221 34.6417C247.502 53.357 261.881 75.4527 267.679 102.378C276.779 144.634 267.091 182.467 239.675 215.84C228.801 229.078 215.688 239.746 201.484 249.102C189.616 256.919 179.177 266.43 168.504 275.7C160.391 282.745 152.104 289.598 143.703 296.298C137.107 301.557 134.475 301.41 127.992 296.122C120.836 290.286 113.666 284.462 106.669 278.438C90.4493 264.472 73.2195 251.826 56.1691 238.916C30.9168 219.795 12.4391 195.613 4.04481 164.508C-0.531768 147.549 -0.99943 130.445 1.51222 113.118C4.57762 91.9711 12.3279 72.7098 25.0863 55.6874C47.2245 26.1504 76.4828 8.11654 113.114 1.9755C135.237 -1.73335 156.902 -0.194454 178.154 6.37761C196.472 12.0424 212.675 21.748 227.221 34.6417ZM128.177 278.587C129.611 279.787 131.105 280.923 132.464 282.203C134.725 284.332 136.75 284.407 139.115 282.195C144.062 277.565 149.081 273.001 154.237 268.606C166.858 257.848 179.133 246.659 193.075 237.54C210.06 226.431 224.754 212.973 236.191 196.027C253.618 170.207 259.03 141.843 254.161 111.434C250.689 89.7506 241.085 70.6666 226.326 54.5718C203.833 30.0432 175.511 16.7889 142.367 14.6348C118.523 13.0851 95.9693 18.213 75.0874 30.2378C60.6102 38.5744 47.7768 48.843 38.1289 62.5002C25.5497 80.3066 17.1031 99.7612 15.2265 121.915C13.6639 140.362 16.0032 158.083 22.9053 175.115C32.1628 197.96 47.9009 215.71 67.4796 230.35C74.0402 235.255 81.4148 238.948 87.6807 244.249C101.065 255.571 114.419 266.931 128.177 278.587Z" fill="#FF83D1"/>
<path d="M93.2416 143.438C97.6217 138.247 101.362 132.875 105.754 127.993C122.36 109.53 152.612 109.901 168.722 131.563C176.347 141.818 184.603 151.465 193.497 160.62C199.715 167.02 204.086 174.373 205.365 183.53C207.115 196.059 198.034 212.347 186.212 217.349C174.175 222.443 163.18 220.113 152.667 213.228C147.674 209.959 142.715 206.769 136.352 206.631C130.151 206.496 124.995 208.879 120.08 212.22C114.115 216.274 107.755 219.491 100.487 220.217C89.0322 221.361 79.3828 217.541 72.654 208.158C62.2668 193.674 64.2982 174.608 77.2491 160.983C82.6464 155.305 88.034 149.622 93.2416 143.438ZM103.516 154.03C98.7644 160.429 93.2023 166.113 87.7088 171.848C82.764 177.011 80.9906 183.138 81.3787 190.136C81.8415 198.479 89.3171 205.682 97.7145 205.773C102.873 205.83 107.113 203.708 111.272 200.851C127.584 189.643 144.086 188.35 160.677 200.386C163.142 202.175 165.795 203.685 168.663 204.73C178.554 208.336 190.221 200.418 190.52 189.883C190.703 183.452 188.916 177.633 184.66 172.716C181.984 169.625 179.215 166.611 176.441 163.605C169.379 155.951 163.015 147.731 156.572 139.561C147.247 127.74 130.8 125.923 119.127 135.444C112.929 140.5 108.674 147.355 103.516 154.03Z" fill="#FF83D1"/>
<path d="M115.814 106.513C103.955 111.272 93.932 109.306 85.2634 100.215C73.8947 88.2919 69.4154 74.1775 73.5861 58.0312C76.5424 46.5862 83.9947 39.0042 95.782 36.6694C107.923 34.2644 117.642 38.9486 124.807 48.6359C134.77 62.1082 135.427 82.745 126.697 97.0216C124.134 101.213 120.429 104.21 115.814 106.513ZM112.033 91.7264C118.894 83.307 119.793 68.1102 113.831 59.1113C111.764 55.9901 109.395 53.0388 105.627 51.7763C97.3633 49.0074 88.0271 55.5786 87.1529 64.865C86.1675 75.3323 89.5472 84.147 97.4822 91.1363C102.391 95.4601 106.093 95.697 112.033 91.7264Z" fill="#FF83D1"/>
<path d="M173.07 36.4929C185.977 37.8864 195.997 47.2441 198.378 60.8466C200.92 75.3641 197.043 88.4979 187.371 99.5554C176.22 112.303 151.176 114.925 141.785 91.4532C135.927 76.8143 138.049 62.6164 146.422 49.6805C152.385 40.4687 161.572 36.1039 173.07 36.4929ZM173.539 92.2785C183.261 85.1748 187.244 69.5035 182.046 58.8086C178.068 50.6232 168.079 48.8168 161.51 55.0946C153.813 62.4507 151.291 76.5019 155.974 85.9452C159.967 93.9977 165.156 95.9987 173.539 92.2785Z" fill="#FF83D1"/>
<path d="M67.7346 92.2993C78.0347 99.6448 84.4974 109.161 86.0782 121.593C87.9431 136.258 77.8036 157.847 57.0303 156.94C49.4227 156.607 42.7797 153.566 37.773 148.049C26.589 135.725 23.3504 121.258 28.5767 105.425C33.3919 90.8367 52.8833 82.1687 67.7346 92.2993ZM43.1528 109.214C40.6874 113.324 40.5014 117.848 40.822 122.438C41.4129 130.898 47.5187 139.07 54.8523 141.307C60.1681 142.928 64.504 141.5 67.7838 137.05C76.6916 124.965 68.5777 108.32 58.3284 104.248C51.989 101.729 47.6684 103.043 43.1528 109.214Z" fill="#FF83D1"/>
<path d="M236.177 95.8752C245.192 106.024 246.102 117.72 243.114 129.924C241.21 137.696 237.807 144.876 231.226 150.071C214.166 163.538 191.531 155.779 186.105 134.672C181.788 117.88 192.25 95.3838 208.934 89.9365C219.316 86.5471 228.188 88.0859 236.177 95.8752ZM207.711 107.368C201.896 113.025 199.39 119.885 200.08 127.975C200.645 134.597 204.821 140.35 210.474 142.074C214.85 143.408 221.233 140.698 224.95 135.538C229.915 128.646 231.143 120.865 228.578 112.875C225.261 102.542 215.966 100.057 207.711 107.368Z" fill="#FF83D1"/>
<path d="M141.992 250.676C134.504 253.578 129.216 252.297 124.912 246.729C120.336 240.81 119.915 233.292 123.854 227.847C127.052 223.427 132.395 221.685 138.204 223.169C144.263 224.716 149.029 229.483 149.527 234.694C150.162 241.356 148.264 246.919 141.992 250.676Z" fill="#FF83D1"/>
</mask>
<g mask="url(#mask0_22_91)">
<path d="M25.5 158.5L-27.5 185.5L-10 212.5L101 390.5L244.5 333L266 225.5L256.5 179.5L219 139.5L171.5 93.5H101L69 126.5L25.5 158.5Z" fill="#05616E"/>
<path d="M27 168L-26 195L-8.5 222L102.5 400L246 342.5L267.5 235L258 189L220.5 149L173 103H102.5L70.5 136L27 168Z" fill="#05616E"/>
<path d="M27 206L-26 233L-8.5 260L102.5 438L246 380.5L267.5 273L258 227L220.5 187L173 141H102.5L70.5 174L27 206Z" fill="#05616E"/>
<path d="M27 265L-26 292L-8.5 319L102.5 497L246 439.5L267.5 332L258 286L220.5 246L173 200H102.5L70.5 233L27 265Z" fill="#05616E"/>
</g>
</g>
<defs>
<clipPath id="clip0_22_91">
<rect width="271" height="300.166" fill="white"/>
</clipPath>
</defs>
</svg>