<svg width="213" height="58" viewBox="0 0 213 58" fill="none" xmlns="http://www.w3.org/2000/svg">
<path d="M62.7899 15.5154C60.9656 15.3428 57.2283 15.0125 56.8733 15.0716L45.4839 13.5185C45.4839 13.5185 37.8255 5.27169 31.2842 4.27391C25.6787 3.41887 22.069 4.60283 17.0845 7.30614C11.9499 10.0908 9.18134 12.7249 6.58256 17.9559C3.98567 23.1832 3.50798 26.9851 4.43781 32.7473C6.36909 44.7157 27.3645 53.6772 27.3645 53.6772L31.2842 51.1626L41.6382 44.5065H47.9985L55.3942 46.0596L61.3107 45.0982C61.3107 45.0982 64.8607 46.0596 65.4523 46.0596C66.044 46.0596 70.3335 45.0982 70.3335 45.0982C70.3335 45.0982 72.5275 43.9642 73.4397 43.3972C73.4397 43.3972 75.5288 43.1938 76.8417 43.3972C79.5735 43.8202 80.452 45.9579 83.128 46.6513C86.0804 47.4162 87.947 47.1326 90.9112 46.6823L91.1154 46.6513C93.422 46.3013 96.884 45.0982 96.884 45.0982C96.884 45.0982 98.9226 45.8427 100.286 46.0596C103.445 46.5623 105.468 46.3287 108.421 45.0982C109.675 44.5759 111.454 43.3972 111.454 43.3972L116.483 40.6607V52.8636C116.483 53.5145 124.026 53.7265 127.798 53.7511C131.57 53.7758 130.239 43.3972 130.239 43.3972C130.239 43.3972 132.38 44.2781 133.789 44.1367C135.421 43.9729 137.56 42.2878 137.56 42.2878C137.56 42.2878 138.14 43.8166 138.818 44.5805C140.88 46.9043 144.097 47.0407 146.731 45.394C148.07 44.557 149.32 42.2878 149.32 42.2878C149.32 42.2878 153.423 45.8224 156.419 45.394C157.741 45.2049 159.6 44.1367 159.6 44.1367C159.6 44.1367 163.832 46.2487 166.773 46.5773C169.453 46.8767 173.651 45.9856 173.651 45.9856C173.651 45.9856 173.722 50.9623 175.796 52.8636C178.585 55.4204 185.485 52.8636 185.485 52.8636C185.485 52.8636 191.086 53.5817 193.398 51.4585C195.766 49.2834 193.225 44.1367 195.395 43.4711C197.564 42.8055 202.273 41.992 202.273 41.992C202.569 42.4061 205.206 36.0015 206.488 32.7473C207.77 29.4932 206.137 27.2306 206.488 23.7246C206.911 19.5135 210.947 16.828 208.855 13.1487C206.402 8.83451 197.935 6.62051 196.282 11.2998C195.325 14.0083 199.912 16.089 198.205 18.3997C196.585 20.5935 193.968 18.8011 191.253 19.0653C188.624 19.3212 184.918 21.6538 184.523 19.7309C184.129 17.808 183.251 13.9623 182.896 13.9623C182.896 13.9623 176.343 10.722 173.651 13.1487C172.014 14.6247 171.901 16.6494 171.581 18.3997C171.112 20.1747 170.264 23.7246 170.619 23.7246L161.079 24.9079C161.079 24.9079 158.909 27.5211 158.342 28.6797C158.342 28.6797 157.366 26.7633 156.419 25.7954C155.417 24.7702 153.572 25.1465 153.387 23.7246C153.168 22.0399 156.064 22.6675 156.937 21.2101C158.705 18.2591 156.423 14.7668 153.387 13.1487C150.646 11.6874 147.967 12.1088 145.474 13.9623C142.747 15.9896 145.483 20.3897 142.589 22.1715C140.179 23.6557 138.172 22.1715 135.342 22.1715C133.031 22.1715 131.703 22.5575 129.425 22.1715C128.036 21.9362 127.326 21.5053 125.949 21.2101C123.872 20.7647 122.667 20.7217 120.55 20.5444C116.032 20.166 111.886 23.9911 108.939 20.5444C106.767 18.0037 112.292 11.6696 107.978 12.0394C103.663 12.4092 94.5914 13.1487 94.5914 13.1487C94.2364 13.1487 95.4789 19.1639 96.1445 22.1715C96.8101 25.1791 91.4362 24.7282 88.6009 23.7246C85.546 22.6433 86.6826 18.1992 83.6457 17.0685C81.1409 16.1358 78.1236 18.7202 76.8417 17.808C75.5598 16.8959 72.1824 15.0716 72.1824 15.0716C72.1824 15.0716 65.6495 15.3674 62.7899 15.5154Z" fill="#05616E" stroke="#05616E" stroke-width="6.50821"/>
<path d="M41.3751 11.4687C44.3749 14.237 46.5017 17.5052 47.3593 21.4879C48.7054 27.7381 47.2724 33.3341 43.2172 38.2705C41.6087 40.2286 39.6691 41.8066 37.5682 43.1904C35.8127 44.3467 34.2687 45.7534 32.6899 47.1246C31.49 48.1667 30.2641 49.1804 29.0215 50.1713C28.046 50.9492 27.6566 50.9274 26.6976 50.1453C25.6392 49.2821 24.5786 48.4206 23.5438 47.5295C21.1446 45.4638 18.5961 43.5934 16.0741 41.6837C12.3389 38.8555 9.60578 35.2787 8.36415 30.6778C7.68721 28.1693 7.61804 25.6394 7.98955 23.0765C8.44296 19.9485 9.58934 17.0995 11.4765 14.5817C14.751 10.2127 19.0787 7.54528 24.497 6.63693C27.7694 6.08834 30.9739 6.31596 34.1173 7.28806C36.8268 8.12597 39.2234 9.56155 41.3751 11.4687ZM26.725 47.5516C26.9371 47.7292 27.1582 47.8972 27.3592 48.0865C27.6936 48.4015 27.9932 48.4126 28.3429 48.0853C29.0747 47.4005 29.817 46.7254 30.5797 46.0753C32.4465 44.4841 34.2621 42.829 36.3244 41.4802C38.8366 39.8371 41.0101 37.8463 42.7019 35.3398C45.2796 31.5207 46.0801 27.3253 45.3598 22.8273C44.8463 19.6201 43.4257 16.7973 41.2426 14.4167C37.9157 10.7885 33.7265 8.82804 28.824 8.50941C25.297 8.28019 21.9611 9.03869 18.8723 10.8173C16.731 12.0504 14.8327 13.5693 13.4057 15.5894C11.545 18.2232 10.2957 21.1008 10.0181 24.3777C9.78695 27.1062 10.133 29.7274 11.1539 32.2467C12.5232 35.6258 14.8511 38.2512 17.747 40.4166C18.7175 41.1422 19.8082 41.6884 20.7351 42.4725C22.7149 44.1473 24.6901 45.8275 26.725 47.5516Z" fill="#FF83D1"/>
<path d="M21.5576 27.561C22.2055 26.7933 22.7588 25.9986 23.4083 25.2765C25.8646 22.5457 30.3393 22.6005 32.7222 25.8046C33.8501 27.3214 35.0712 28.7483 36.3868 30.1025C37.3065 31.0492 37.9531 32.1368 38.1422 33.4912C38.401 35.3444 37.0578 37.7536 35.3092 38.4936C33.5288 39.2471 31.9025 38.9024 30.3474 37.8841C29.6089 37.4005 28.8754 36.9287 27.9342 36.9082C27.0171 36.8882 26.2544 37.2407 25.5274 37.7348C24.6451 38.3346 23.7044 38.8104 22.6292 38.9178C20.935 39.0871 19.5077 38.522 18.5124 37.1341C16.976 34.9917 17.2765 32.1716 19.1921 30.1562C19.9904 29.3163 20.7873 28.4758 21.5576 27.561ZM23.0773 29.1279C22.3745 30.0742 21.5518 30.9151 20.7392 31.7634C20.0078 32.5269 19.7455 33.4333 19.8029 34.4683C19.8714 35.7025 20.9771 36.7678 22.2192 36.7813C22.9822 36.7897 23.6093 36.4759 24.2245 36.0532C26.6374 34.3955 29.0782 34.2042 31.5322 35.9845C31.8969 36.2491 32.2892 36.4724 32.7135 36.6271C34.1765 37.1604 35.9023 35.9893 35.9465 34.431C35.9735 33.4797 35.7092 32.619 35.0797 31.8918C34.6838 31.4345 34.2742 30.9887 33.864 30.5441C32.8194 29.412 31.8781 28.1961 30.925 26.9877C29.5457 25.2391 27.113 24.9703 25.3864 26.3787C24.4696 27.1265 23.8403 28.1405 23.0773 29.1279Z" fill="#FF83D1"/>
<path d="M24.8963 22.0994C23.1422 22.8033 21.6597 22.5126 20.3775 21.1678C18.6959 19.4043 18.0333 17.3166 18.6502 14.9283C19.0875 13.2354 20.1898 12.1139 21.9333 11.7686C23.7292 11.4129 25.1668 12.1057 26.2265 13.5386C27.7002 15.5314 27.7973 18.5838 26.5061 20.6955C26.127 21.3155 25.5789 21.7587 24.8963 22.0994ZM24.337 19.9123C25.3519 18.6669 25.4848 16.4191 24.603 15.0881C24.2972 14.6264 23.9468 14.1899 23.3895 14.0031C22.1672 13.5936 20.7862 14.5655 20.6569 15.9391C20.5112 17.4874 21.0111 18.7912 22.1848 19.825C22.9109 20.4646 23.4584 20.4996 24.337 19.9123Z" fill="#FF83D1"/>
<path d="M33.3654 11.7425C35.2744 11.9487 36.7565 13.3328 37.1088 15.3448C37.4848 17.4921 36.9112 19.4348 35.4806 21.0704C33.8313 22.956 30.1269 23.3437 28.7378 19.8719C27.8714 17.7066 28.1852 15.6066 29.4237 13.6932C30.3057 12.3306 31.6645 11.685 33.3654 11.7425ZM33.4348 19.994C34.8727 18.9433 35.4618 16.6253 34.693 15.0434C34.1045 13.8326 32.6271 13.5654 31.6555 14.494C30.5169 15.5821 30.144 17.6604 30.8366 19.0572C31.4272 20.2483 32.1948 20.5443 33.4348 19.994Z" fill="#FF83D1"/>
<path d="M17.7848 19.9969C19.3083 21.0834 20.2643 22.4911 20.4981 24.3299C20.7739 26.499 19.2742 29.6924 16.2015 29.5582C15.0762 29.509 14.0936 29.0591 13.3531 28.2431C11.6988 26.4202 11.2198 24.2804 11.9928 21.9384C12.7051 19.7806 15.5881 18.4985 17.7848 19.9969ZM14.1488 22.4988C13.7842 23.1068 13.7567 23.776 13.8041 24.4549C13.8915 25.7063 14.7946 26.9149 15.8794 27.2458C16.6656 27.4857 17.307 27.2744 17.7921 26.6162C19.1097 24.8286 17.9095 22.3666 16.3935 21.7643C15.4558 21.3918 14.8168 21.5861 14.1488 22.4988Z" fill="#FF83D1"/>
<path d="M42.6997 20.5261C44.0331 22.0272 44.1677 23.7573 43.7257 25.5624C43.4442 26.712 42.9408 27.774 41.9673 28.5424C39.4439 30.5343 36.0959 29.3867 35.2933 26.2646C34.6547 23.7808 36.2022 20.4534 38.6701 19.6476C40.2057 19.1463 41.518 19.3739 42.6997 20.5261ZM38.4892 22.2259C37.629 23.0628 37.2584 24.0775 37.3605 25.274C37.444 26.2536 38.0616 27.1045 38.8979 27.3595C39.5452 27.5569 40.4893 27.156 41.0391 26.3928C41.7735 25.3733 41.955 24.2225 41.5757 23.0405C41.0851 21.5121 39.7102 21.1446 38.4892 22.2259Z" fill="#FF83D1"/>
<path d="M28.7684 43.4232C27.6609 43.8525 26.8788 43.6631 26.242 42.8394C25.5653 41.964 25.503 40.8519 26.0856 40.0466C26.5586 39.3927 27.3489 39.1351 28.2082 39.3546C29.1044 39.5835 29.8093 40.2885 29.8829 41.0593C29.977 42.0447 29.6961 42.8676 28.7684 43.4232Z" fill="#FF83D1"/>
<mask id="mask0_22_158" style="mask-type:alpha" maskUnits="userSpaceOnUse" x="7" y="6" width="41" height="45">
<path d="M41.3751 11.4687C44.3749 14.237 46.5017 17.5052 47.3593 21.4879C48.7054 27.7381 47.2724 33.3341 43.2172 38.2705C41.6087 40.2286 39.6691 41.8066 37.5682 43.1904C35.8127 44.3467 34.2687 45.7534 32.6899 47.1246C31.49 48.1667 30.2641 49.1804 29.0215 50.1713C28.046 50.9492 27.6566 50.9274 26.6976 50.1453C25.6392 49.2821 24.5786 48.4206 23.5438 47.5295C21.1446 45.4638 18.5961 43.5934 16.0741 41.6837C12.3389 38.8555 9.60578 35.2787 8.36415 30.6778C7.68721 28.1693 7.61804 25.6394 7.98955 23.0765C8.44296 19.9485 9.58934 17.0995 11.4765 14.5817C14.751 10.2127 19.0787 7.54528 24.497 6.63693C27.7694 6.08834 30.9739 6.31596 34.1173 7.28806C36.8268 8.12597 39.2234 9.56155 41.3751 11.4687ZM26.725 47.5516C26.9371 47.7292 27.1582 47.8972 27.3592 48.0865C27.6936 48.4015 27.9932 48.4126 28.3429 48.0853C29.0747 47.4005 29.817 46.7254 30.5797 46.0753C32.4465 44.4841 34.2621 42.829 36.3244 41.4802C38.8366 39.8371 41.0101 37.8463 42.7019 35.3398C45.2796 31.5207 46.0801 27.3253 45.3598 22.8273C44.8463 19.6201 43.4257 16.7973 41.2426 14.4167C37.9157 10.7885 33.7265 8.82804 28.824 8.50941C25.297 8.28019 21.9611 9.03869 18.8723 10.8173C16.731 12.0504 14.8327 13.5693 13.4057 15.5894C11.545 18.2232 10.2957 21.1008 10.0181 24.3777C9.78695 27.1062 10.133 29.7274 11.1539 32.2467C12.5232 35.6258 14.8511 38.2512 17.747 40.4166C18.7175 41.1422 19.8082 41.6884 20.7351 42.4725C22.7149 44.1473 24.6901 45.8275 26.725 47.5516Z" fill="#FF83D1"/>
<path d="M21.5576 27.561C22.2055 26.7933 22.7588 25.9986 23.4083 25.2765C25.8646 22.5457 30.3393 22.6005 32.7222 25.8046C33.8501 27.3214 35.0712 28.7483 36.3868 30.1025C37.3065 31.0492 37.9531 32.1368 38.1422 33.4912C38.401 35.3444 37.0578 37.7536 35.3092 38.4936C33.5288 39.2471 31.9025 38.9024 30.3474 37.8841C29.6089 37.4005 28.8754 36.9287 27.9342 36.9082C27.0171 36.8882 26.2544 37.2407 25.5274 37.7348C24.6451 38.3346 23.7044 38.8104 22.6292 38.9178C20.935 39.0871 19.5077 38.522 18.5124 37.1341C16.976 34.9917 17.2765 32.1716 19.1921 30.1562C19.9904 29.3163 20.7873 28.4758 21.5576 27.561ZM23.0773 29.1279C22.3745 30.0742 21.5518 30.9151 20.7392 31.7634C20.0078 32.5269 19.7455 33.4333 19.8029 34.4683C19.8714 35.7025 20.9771 36.7678 22.2192 36.7813C22.9822 36.7897 23.6093 36.4759 24.2245 36.0532C26.6374 34.3955 29.0782 34.2042 31.5322 35.9845C31.8969 36.2491 32.2892 36.4724 32.7135 36.6271C34.1765 37.1604 35.9023 35.9893 35.9465 34.431C35.9735 33.4797 35.7092 32.619 35.0797 31.8918C34.6838 31.4345 34.2742 30.9887 33.864 30.5441C32.8194 29.412 31.8781 28.1961 30.925 26.9877C29.5457 25.2391 27.113 24.9703 25.3864 26.3787C24.4696 27.1265 23.8403 28.1405 23.0773 29.1279Z" fill="#FF83D1"/>
<path d="M24.8963 22.0994C23.1422 22.8033 21.6597 22.5126 20.3775 21.1678C18.6959 19.4043 18.0333 17.3166 18.6502 14.9283C19.0875 13.2354 20.1898 12.1139 21.9333 11.7686C23.7292 11.4129 25.1668 12.1057 26.2265 13.5386C27.7002 15.5314 27.7973 18.5838 26.5061 20.6955C26.127 21.3155 25.5789 21.7587 24.8963 22.0994ZM24.337 19.9123C25.3519 18.6669 25.4848 16.4191 24.603 15.0881C24.2972 14.6264 23.9468 14.1899 23.3895 14.0031C22.1672 13.5936 20.7862 14.5655 20.6569 15.9391C20.5112 17.4874 21.0111 18.7912 22.1848 19.825C22.9109 20.4646 23.4584 20.4996 24.337 19.9123Z" fill="#FF83D1"/>
<path d="M33.3654 11.7425C35.2744 11.9487 36.7565 13.3328 37.1088 15.3448C37.4848 17.4921 36.9112 19.4348 35.4806 21.0704C33.8313 22.956 30.1269 23.3437 28.7378 19.8719C27.8714 17.7066 28.1852 15.6066 29.4237 13.6932C30.3057 12.3306 31.6645 11.685 33.3654 11.7425ZM33.4348 19.994C34.8727 18.9433 35.4618 16.6253 34.693 15.0434C34.1045 13.8326 32.6271 13.5654 31.6555 14.494C30.5169 15.5821 30.144 17.6604 30.8366 19.0572C31.4272 20.2483 32.1948 20.5443 33.4348 19.994Z" fill="#FF83D1"/>
<path d="M17.7848 19.9969C19.3083 21.0834 20.2643 22.4911 20.4981 24.3299C20.7739 26.499 19.2742 29.6924 16.2015 29.5582C15.0762 29.509 14.0936 29.0591 13.3531 28.2431C11.6988 26.4202 11.2198 24.2804 11.9928 21.9384C12.7051 19.7806 15.5881 18.4985 17.7848 19.9969ZM14.1488 22.4988C13.7842 23.1068 13.7567 23.776 13.8041 24.4549C13.8915 25.7063 14.7946 26.9149 15.8794 27.2458C16.6656 27.4857 17.307 27.2744 17.7921 26.6162C19.1097 24.8286 17.9095 22.3666 16.3935 21.7643C15.4558 21.3918 14.8168 21.5861 14.1488 22.4988Z" fill="#FF83D1"/>
<path d="M42.6997 20.5261C44.0331 22.0272 44.1677 23.7573 43.7257 25.5624C43.4442 26.712 42.9408 27.774 41.9673 28.5424C39.4439 30.5343 36.0959 29.3867 35.2933 26.2646C34.6547 23.7808 36.2022 20.4534 38.6701 19.6476C40.2057 19.1463 41.518 19.3739 42.6997 20.5261ZM38.4892 22.2259C37.629 23.0628 37.2584 24.0775 37.3605 25.274C37.444 26.2536 38.0616 27.1045 38.8979 27.3595C39.5452 27.5569 40.4893 27.156 41.0391 26.3928C41.7735 25.3733 41.955 24.2225 41.5757 23.0405C41.0851 21.5121 39.7102 21.1446 38.4892 22.2259Z" fill="#FF83D1"/>
<path d="M28.7684 43.4232C27.6609 43.8525 26.8788 43.6631 26.242 42.8394C25.5653 41.964 25.503 40.8519 26.0856 40.0466C26.5586 39.3927 27.3489 39.1351 28.2082 39.3546C29.1044 39.5835 29.8093 40.2885 29.8829 41.0593C29.977 42.0447 29.6961 42.8676 28.7684 43.4232Z" fill="#FF83D1"/>
</mask>
<g mask="url(#mask0_22_158)">
<path d="M11.5377 29.789L3.69824 33.7826L6.28674 37.7763L22.7052 64.105L43.9308 55.6L47.111 39.6992L45.7058 32.8952L40.159 26.9786L33.1331 20.1746H22.7052L17.9719 25.0557L11.5377 29.789Z" fill="#FDCD7B" fill-opacity="0.25"/>
<path d="M11.7596 31.1942L3.92017 35.1879L6.50866 39.1816L22.9271 65.5103L44.1528 57.0052L47.3329 41.1045L45.9277 34.3004L40.381 28.3839L33.355 21.5798H22.9271L18.1939 26.461L11.7596 31.1942Z" fill="#FDCD7B" fill-opacity="0.5"/>
<path d="M11.7596 36.8151L3.92017 40.8088L6.50866 44.8024L22.9271 71.1311L44.1528 62.6261L47.3329 46.7253L45.9277 39.9213L40.381 34.0047L33.355 27.2007H22.9271L18.1939 32.0818L11.7596 36.8151Z" fill="#FDCD7B" fill-opacity="0.75"/>
<path d="M11.7596 45.5419L3.92017 49.5356L6.50866 53.5293L22.9271 79.8579L44.1528 71.3529L47.3329 55.4521L45.9277 48.6481L40.381 42.7315L33.355 35.9275H22.9271L18.1939 40.8087L11.7596 45.5419Z" fill="#FDCD7B"/>
</g>
<path d="M191.854 49.8323L185.05 50.2716C184.712 50.3121 184.371 50.0445 184.327 49.6727L184.319 49.6051L182.467 22.7443C182.456 22.3685 182.724 22.0278 183.062 21.9872L183.129 21.9791L188.81 21.6061C190.198 20.891 191.653 20.4422 193.072 20.2719C199.02 19.5582 204.879 23.2433 205.617 29.3941C206.355 35.545 202.462 39.9546 196.074 40.721C194.655 40.8913 193.245 40.8548 191.946 40.5993L192.516 49.0672C192.531 49.4768 192.259 49.7836 191.854 49.8323ZM191.056 27.473L191.496 34.2768C192.284 34.5593 193.296 34.7121 194.243 34.5986C194.513 34.5661 197.757 34.1768 197.311 30.4593C197.031 28.1274 195.079 26.7161 192.714 26.9999C192.173 27.0648 191.611 27.2351 191.056 27.473Z" fill="#FF83D1"/>
<path d="M183.052 37.2278L182.148 41.7665C182.011 42.4068 181.768 42.7946 181.342 42.9155C181.015 43.0086 178.574 43.1361 176.499 42.0625C175.048 43.4304 173.392 44.3258 171.722 44.8004C166.254 46.3544 160.348 43.5034 158.85 38.232C157.733 34.3031 158.907 27.8478 165.389 26.0054C167.026 25.5401 168.733 25.4443 170.168 25.638C170.3 25.353 170.566 25.171 170.959 25.0593L171.123 25.0128L176.927 23.8941C177.797 23.7176 178.147 24.0781 178.259 24.471L178.305 24.6347C178.693 27.7445 179.045 30.7233 179.659 32.8842C180.217 34.8487 180.977 36.1542 182.183 36.4131C182.557 36.4837 182.973 36.5778 183.066 36.9052C183.085 36.9707 183.08 37.0783 183.052 37.2278ZM172.779 37.5642C172.439 36.7408 172.113 35.8427 171.825 34.8277C171.583 33.9764 171.364 33.0831 171.151 32.0822C170.572 31.539 169.557 31.3319 168.608 31.6018C166.545 32.188 165.967 34.5109 166.441 36.1807C166.962 38.0143 168.686 39.2229 170.814 38.6181C171.436 38.4413 172.119 38.1056 172.779 37.5642Z" fill="#FF83D1"/>
<path d="M145.988 43.615L139.666 43.1337L139.599 43.1249C139.261 43.0809 139.031 42.7419 139.046 42.3662L139.637 35.2004C139.913 31.7694 139.389 30.2594 137.285 29.8133L136.294 42.1446C136.241 42.5497 135.932 42.8182 135.556 42.8036L129.205 42.2841L129.137 42.2753C128.8 42.2313 128.569 41.8923 128.584 41.5166L130.029 23.8554L130.038 23.7879C130.086 23.4166 130.392 23.1818 130.734 23.1921L132.772 23.3549C134.568 23.0056 136.291 22.9557 137.911 23.167C139.43 23.3651 140.817 23.7863 142.067 24.4643C144.333 23.9359 146.44 23.8332 148.33 24.0797C154.271 24.8545 158.136 29.1689 157.706 35.3602C157.555 37.5717 157.711 39.274 159.134 40.7298C159.315 40.9249 159.676 41.3153 159.627 41.6866C159.605 41.8553 159.511 42.049 159.287 42.1914C159.278 42.2589 156.052 44.6186 156.052 44.6186C155.637 44.9077 155.316 45.0031 154.978 44.9591C154.506 44.8975 149.343 43.16 149.805 36.458C150.112 32.7907 149.579 31.3482 147.691 30.8272L146.727 42.9561C146.674 43.3611 146.364 43.6296 145.988 43.615Z" fill="#FF83D1"/>
<path d="M121.554 41.3338L118.967 41.47H118.729C118.184 41.47 117.844 41.3338 117.572 40.8913C117.367 40.4828 115.938 36.7046 115.393 35.2069C115.291 34.9346 115.223 34.8665 115.189 34.8665C115.121 34.8665 115.087 35.0708 115.053 35.2069C114.712 36.7386 113.964 40.0744 113.691 40.9594C113.589 41.3678 113.044 41.7763 112.466 41.8103L109.096 41.9805H108.926C108.313 41.9805 107.7 41.7763 107.394 41.0955L100.45 25.8464C100.348 25.6422 100.212 25.3699 100.212 25.0976C100.212 24.7912 100.416 24.4849 101.097 24.2466L106.067 22.6128C106.305 22.5447 106.509 22.5107 106.679 22.5107C107.156 22.5107 107.462 22.7489 107.598 23.0553L111.07 30.3735C111.138 30.5097 111.206 30.5437 111.274 30.5437C111.343 30.5437 111.445 30.4416 111.479 30.2373C111.615 29.0801 111.819 26.6293 111.853 26.323C111.921 25.5741 112.296 25.3699 113.113 25.3018L117.027 25.1316H117.197C117.674 25.1316 117.98 25.3018 118.184 25.8124L119.069 29.897C119.103 29.9991 119.171 30.1352 119.239 30.1352C119.342 30.1352 119.41 29.897 120.941 22.5107C121.077 21.898 121.418 21.7278 121.86 21.7278C122.167 21.7278 122.507 21.7959 122.813 21.864L126.932 22.6809C127.919 22.8511 128.123 23.2595 128.123 23.7361C128.123 23.9062 128.089 24.1105 128.055 24.2807C125.605 37.6577 123.63 41.2317 121.554 41.3338Z" fill="#FF83D1"/>
<path d="M102.734 38.6434L101.547 43.1163C101.37 43.7469 101.103 44.1185 100.671 44.2125C100.338 44.2849 97.894 44.2589 95.891 43.0572C94.3567 44.3314 92.6474 45.121 90.9511 45.4898C85.3965 46.6976 79.6812 43.4815 78.5169 38.1265C77.649 34.1352 79.2251 27.7663 85.8108 26.3344C87.4739 25.9728 89.1832 25.9843 90.6033 26.2677C90.7523 25.9915 91.0299 25.8266 91.4291 25.7398L91.5954 25.7037L97.458 24.9515C98.3372 24.83 98.6641 25.2117 98.7509 25.6109L98.787 25.7772C98.9795 28.9052 99.143 31.9001 99.6203 34.0954C100.054 36.091 100.731 37.4417 101.918 37.7757C102.287 37.8697 102.696 37.9897 102.769 38.3223C102.783 38.3889 102.772 38.4959 102.734 38.6434ZM92.4606 38.3343C92.1728 37.4912 91.9038 36.5743 91.6796 35.5432C91.4916 34.6784 91.3296 33.7732 91.1791 32.7609C90.6353 32.1824 89.6361 31.912 88.6715 32.1218C86.576 32.5774 85.853 34.8594 86.2219 36.5557C86.6269 38.4183 88.2712 39.7328 90.4331 39.2628C91.0651 39.1254 91.7679 38.8332 92.4606 38.3343Z" fill="#FF83D1"/>
<path d="M62.6994 44.7319H62.6313L55.4833 44.3575C55.0748 44.3235 54.8025 44.0171 54.8025 43.6087L56.1981 16.6845C56.1981 16.3441 56.5044 16.0378 56.8788 16.0378H56.9469L63.1759 16.3441C64.5374 15.9016 65.8989 15.6633 67.2264 15.6633C73.5235 15.6633 79.2079 20.3266 79.2079 26.8959C79.2079 33.193 74.9191 37.5839 67.8391 37.5839C66.4095 37.5839 65.0139 37.3797 63.7205 37.0053L63.3801 44.0512C63.3461 44.4256 63.0397 44.7319 62.6994 44.7319ZM64.4353 23.0837L64.0609 30.2317C64.8097 30.5721 65.7628 30.8103 66.6818 30.8103C70.426 30.8103 70.426 27.1682 70.426 26.93C70.426 24.5473 68.5199 22.8794 66.0011 22.8794C65.5245 22.8794 64.9799 22.9475 64.4353 23.0837Z" fill="#FF83D1"/>
<mask id="mask1_22_158" style="mask-type:alpha" maskUnits="userSpaceOnUse" x="54" y="15" width="152" height="36">
<path d="M191.854 49.8323L185.05 50.2716C184.712 50.3121 184.371 50.0445 184.327 49.6727L184.319 49.6051L182.467 22.7443C182.456 22.3685 182.724 22.0278 183.062 21.9872L183.129 21.9791L188.81 21.6061C190.198 20.891 191.653 20.4422 193.072 20.2719C199.02 19.5582 204.879 23.2433 205.617 29.3941C206.355 35.545 202.462 39.9546 196.074 40.721C194.655 40.8913 193.245 40.8548 191.946 40.5993L192.516 49.0672C192.531 49.4768 192.259 49.7836 191.854 49.8323ZM191.056 27.473L191.496 34.2768C192.284 34.5593 193.296 34.7121 194.243 34.5986C194.513 34.5661 197.757 34.1768 197.311 30.4593C197.031 28.1274 195.079 26.7161 192.714 26.9999C192.173 27.0648 191.611 27.2351 191.056 27.473Z" fill="#FF83D1"/>
<path d="M183.052 37.2278L182.148 41.7665C182.011 42.4068 181.768 42.7946 181.342 42.9155C181.015 43.0086 178.574 43.1361 176.499 42.0625C175.048 43.4304 173.392 44.3258 171.722 44.8004C166.254 46.3544 160.348 43.5034 158.85 38.232C157.733 34.3031 158.907 27.8478 165.389 26.0054C167.026 25.5401 168.733 25.4443 170.168 25.638C170.3 25.353 170.566 25.171 170.959 25.0593L171.123 25.0128L176.927 23.8941C177.797 23.7176 178.147 24.0781 178.259 24.471L178.305 24.6347C178.693 27.7445 179.045 30.7233 179.659 32.8842C180.217 34.8487 180.977 36.1542 182.183 36.4131C182.557 36.4837 182.973 36.5778 183.066 36.9052C183.085 36.9707 183.08 37.0783 183.052 37.2278ZM172.779 37.5642C172.439 36.7408 172.113 35.8427 171.825 34.8277C171.583 33.9764 171.364 33.0831 171.151 32.0822C170.572 31.539 169.557 31.3319 168.608 31.6018C166.545 32.188 165.967 34.5109 166.441 36.1807C166.962 38.0143 168.686 39.2229 170.814 38.6181C171.436 38.4413 172.119 38.1056 172.779 37.5642Z" fill="#FF83D1"/>
<path d="M145.988 43.615L139.666 43.1337L139.599 43.1249C139.261 43.0809 139.031 42.7419 139.046 42.3662L139.637 35.2004C139.913 31.7694 139.389 30.2594 137.285 29.8133L136.294 42.1446C136.241 42.5497 135.932 42.8182 135.556 42.8036L129.205 42.2841L129.137 42.2753C128.8 42.2313 128.569 41.8923 128.584 41.5166L130.029 23.8554L130.038 23.7879C130.086 23.4166 130.392 23.1818 130.734 23.1921L132.772 23.3549C134.568 23.0056 136.291 22.9557 137.911 23.167C139.43 23.3651 140.817 23.7863 142.067 24.4643C144.333 23.9359 146.44 23.8332 148.33 24.0797C154.271 24.8545 158.136 29.1689 157.706 35.3602C157.555 37.5717 157.711 39.274 159.134 40.7298C159.315 40.9249 159.676 41.3153 159.627 41.6866C159.605 41.8553 159.511 42.049 159.287 42.1914C159.278 42.2589 156.052 44.6186 156.052 44.6186C155.637 44.9077 155.316 45.0031 154.978 44.9591C154.506 44.8975 149.343 43.16 149.805 36.458C150.112 32.7907 149.579 31.3482 147.691 30.8272L146.727 42.9561C146.674 43.3611 146.364 43.6296 145.988 43.615Z" fill="#FF83D1"/>
<path d="M121.554 41.3338L118.967 41.47H118.729C118.184 41.47 117.844 41.3338 117.572 40.8913C117.367 40.4828 115.938 36.7046 115.393 35.2069C115.291 34.9346 115.223 34.8665 115.189 34.8665C115.121 34.8665 115.087 35.0708 115.053 35.2069C114.712 36.7386 113.964 40.0744 113.691 40.9594C113.589 41.3678 113.044 41.7763 112.466 41.8103L109.096 41.9805H108.926C108.313 41.9805 107.7 41.7763 107.394 41.0955L100.45 25.8464C100.348 25.6422 100.212 25.3699 100.212 25.0976C100.212 24.7912 100.416 24.4849 101.097 24.2466L106.067 22.6128C106.305 22.5447 106.509 22.5107 106.679 22.5107C107.156 22.5107 107.462 22.7489 107.598 23.0553L111.07 30.3735C111.138 30.5097 111.206 30.5437 111.274 30.5437C111.343 30.5437 111.445 30.4416 111.479 30.2373C111.615 29.0801 111.819 26.6293 111.853 26.323C111.921 25.5741 112.296 25.3699 113.113 25.3018L117.027 25.1316H117.197C117.674 25.1316 117.98 25.3018 118.184 25.8124L119.069 29.897C119.103 29.9991 119.171 30.1352 119.239 30.1352C119.342 30.1352 119.41 29.897 120.941 22.5107C121.077 21.898 121.418 21.7278 121.86 21.7278C122.167 21.7278 122.507 21.7959 122.813 21.864L126.932 22.6809C127.919 22.8511 128.123 23.2595 128.123 23.7361C128.123 23.9062 128.089 24.1105 128.055 24.2807C125.605 37.6577 123.63 41.2317 121.554 41.3338Z" fill="#FF83D1"/>
<path d="M102.734 38.6434L101.547 43.1163C101.37 43.7469 101.103 44.1185 100.671 44.2125C100.338 44.2849 97.894 44.2589 95.891 43.0572C94.3567 44.3314 92.6474 45.121 90.9511 45.4898C85.3965 46.6976 79.6812 43.4815 78.5169 38.1265C77.649 34.1352 79.2251 27.7663 85.8108 26.3344C87.4739 25.9728 89.1832 25.9843 90.6033 26.2677C90.7523 25.9915 91.0299 25.8266 91.4291 25.7398L91.5954 25.7037L97.458 24.9515C98.3372 24.83 98.6641 25.2117 98.7509 25.6109L98.787 25.7772C98.9795 28.9052 99.143 31.9001 99.6203 34.0954C100.054 36.091 100.731 37.4417 101.918 37.7757C102.287 37.8697 102.696 37.9897 102.769 38.3223C102.783 38.3889 102.772 38.4959 102.734 38.6434ZM92.4606 38.3343C92.1728 37.4912 91.9038 36.5743 91.6796 35.5432C91.4916 34.6784 91.3296 33.7732 91.1791 32.7609C90.6353 32.1824 89.6361 31.912 88.6715 32.1218C86.576 32.5774 85.853 34.8594 86.2219 36.5557C86.6269 38.4183 88.2712 39.7328 90.4331 39.2628C91.0651 39.1254 91.7679 38.8332 92.4606 38.3343Z" fill="#FF83D1"/>
<path d="M62.6994 44.7319H62.6313L55.4833 44.3575C55.0748 44.3235 54.8025 44.0171 54.8025 43.6087L56.1981 16.6845C56.1981 16.3441 56.5044 16.0378 56.8788 16.0378H56.9469L63.1759 16.3441C64.5374 15.9016 65.8989 15.6633 67.2264 15.6633C73.5235 15.6633 79.2079 20.3266 79.2079 26.8959C79.2079 33.193 74.9191 37.5839 67.8391 37.5839C66.4095 37.5839 65.0139 37.3797 63.7205 37.0053L63.3801 44.0512C63.3461 44.4256 63.0397 44.7319 62.6994 44.7319ZM64.4353 23.0837L64.0609 30.2317C64.8097 30.5721 65.7628 30.8103 66.6818 30.8103C70.426 30.8103 70.426 27.1682 70.426 26.93C70.426 24.5473 68.5199 22.8794 66.0011 22.8794C65.5245 22.8794 64.9799 22.9475 64.4353 23.0837Z" fill="#FF83D1"/>
</mask>
<g mask="url(#mask1_22_158)">
<path d="M57.6868 32.3775L37.2007 55.3781L85.7904 93.7618L211.074 60.0374L205.971 34.5223L191.031 28.5317L180.381 34.5223C174.711 33.8073 161.153 32.8065 152.278 34.5223C143.403 36.2381 142.91 33.8073 143.773 32.3775L131.422 28.5317L106.72 34.5223L57.6868 32.3775Z" fill="#FDCD7B" fill-opacity="0.25"/>
<path d="M57.6868 36.815L37.2007 59.8156L85.7904 98.1993L211.074 64.4749L205.971 38.9598L191.031 32.9692L180.381 38.9598C174.711 38.2448 161.153 37.244 152.278 38.9598C143.403 40.6756 142.91 38.2448 143.773 36.815L131.422 32.9692L106.72 38.9598L57.6868 36.815Z" fill="#FDCD7B" fill-opacity="0.5"/>
<path d="M55.616 39.4774L35.1299 62.478L83.7196 100.862L209.003 67.1373L203.9 41.6221L188.96 35.6316L178.311 41.6221C172.641 40.9072 159.082 39.9063 150.207 41.6221C141.332 43.3379 140.839 40.9072 141.702 39.4774L129.351 35.6316L104.649 41.6221L55.616 39.4774Z" fill="#FDCD7B" fill-opacity="0.75"/>
<path d="M55.616 43.1754L35.1299 66.176L83.7196 104.56L209.003 70.8353L203.9 45.3201L188.96 39.3296L178.311 45.3201C172.641 44.6052 159.082 43.6043 150.207 45.3201C141.332 47.0359 140.839 44.6052 141.702 43.1754L129.351 39.3296L104.649 45.3201L55.616 43.1754Z" fill="#FDCD7B"/>
</g>
<path d="M147.653 18.9885C147.439 18.8493 147.379 18.5627 147.518 18.3489C147.657 18.1351 147.944 18.0745 148.158 18.2137C148.371 18.3529 148.432 18.6394 148.293 18.8533C148.154 19.0671 147.867 19.1277 147.653 18.9885ZM146.863 21.0482C146.845 21.0388 146.88 21.0592 146.863 21.0482V21.0482ZM148.413 22.0573C148.397 22.0464 148.431 22.0695 148.413 22.0573V22.0573ZM151.662 22.1504C150.689 23.6454 148.68 24.0696 147.185 23.0962L146.428 22.6031C144.923 21.6236 144.491 19.6099 145.464 18.1147C146.355 16.747 147.101 15.8325 147.651 15.1885C147.804 15.0098 148.039 14.9396 148.265 15.0051C148.491 15.0699 148.653 15.257 148.687 15.491L148.836 16.2282C148.853 16.3107 148.924 16.3724 149.013 16.3814C149.633 16.4401 150.218 16.6249 150.66 16.9012C151.125 17.1919 151.523 17.638 151.819 18.1953C151.862 18.277 151.948 18.3191 152.033 18.3004L152.764 18.1383C152.976 18.0789 153.212 18.1515 153.364 18.3348C153.514 18.5161 153.543 18.7603 153.439 18.972C153.087 19.6915 152.551 20.7835 151.661 22.1505L151.662 22.1504ZM151.145 21.8141C152.015 20.4787 152.525 19.4384 152.871 18.733L152.167 18.9021C151.813 18.9803 151.446 18.8085 151.274 18.484C151.029 18.022 150.706 17.6534 150.333 17.4235C149.976 17.1999 149.474 17.0438 148.955 16.9944C148.593 16.9597 148.303 16.7008 148.232 16.3496L148.087 15.6279C147.552 16.2552 146.834 17.14 145.981 18.4504C145.193 19.6611 145.545 21.2921 146.764 22.0861L147.522 22.5792C148.732 23.3672 150.358 23.0238 151.146 21.8136L151.145 21.8141ZM148.797 21.5789C148.483 21.2707 148.546 20.8896 148.633 20.6523C148.927 20.7102 149.18 20.5971 149.261 20.4721C149.371 20.3027 149.231 20.0159 148.815 19.745C148.399 19.4742 148.08 19.4621 147.97 19.6315C147.888 19.7568 147.887 20.0349 148.061 20.2807C147.88 20.4564 147.56 20.6686 147.146 20.5039C146.987 20.441 146.808 20.5185 146.745 20.6765C146.69 20.8153 146.743 20.9699 146.863 21.0482C147.254 21.2457 147.658 21.1909 147.953 21.0701C147.961 21.3883 148.022 21.7743 148.413 22.0573C148.534 22.1357 148.697 22.1215 148.801 22.0148C148.92 21.8934 148.918 21.6983 148.797 21.5789ZM150.482 19.7268C150.268 19.5876 149.981 19.6482 149.842 19.862C149.703 20.0758 149.764 20.3624 149.977 20.5016C150.191 20.6408 150.478 20.5802 150.617 20.3664C150.756 20.1525 150.696 19.866 150.482 19.7268Z" fill="#FF83D1"/>
<path d="M66.6499 43.9111C66.2952 43.6788 66.0219 43.3471 65.8657 42.9449C65.6979 42.5188 65.679 42.0485 65.8096 41.6163C65.5198 41.2683 65.3494 40.8295 65.3306 40.3757C65.3096 39.8005 65.5253 39.255 65.9393 38.8394C66.5139 38.262 67.4091 38.0854 68.1666 38.4019C68.6615 38.6117 69.0502 38.9918 69.2627 39.4744L72.9128 38.7373C72.9072 38.1885 73.1143 37.681 73.4843 37.2911C74.0486 36.696 74.9399 36.5005 75.701 36.8031C76.2427 37.0163 76.6621 37.4328 76.8725 37.9686C77.0402 38.3947 77.0592 38.8649 76.9285 39.2972C77.2184 39.6452 77.3888 40.0839 77.4076 40.5378C77.4286 41.113 77.2129 41.6585 76.7988 42.074C76.2242 42.6515 75.329 42.828 74.5716 42.5116C74.0767 42.3018 73.688 41.9217 73.4755 41.439L69.8254 42.1762C69.831 42.725 69.6239 43.2325 69.2539 43.6224C68.6896 44.2174 67.7983 44.4129 67.0371 44.1104C66.8976 44.0571 66.7681 43.9886 66.6499 43.9111ZM68.0047 39.3478C67.9437 39.3079 67.8801 39.2717 67.8116 39.2431C67.4005 39.0719 66.9005 39.1694 66.5869 39.4818C66.3522 39.715 66.2345 40.0195 66.2421 40.3406C66.2522 40.658 66.3962 40.954 66.6369 41.1608C66.7935 41.2961 66.8395 41.517 66.7499 41.7036C66.6143 41.9854 66.6043 42.3169 66.7179 42.6093C66.8328 42.9081 67.0686 43.1389 67.3769 43.2592C67.7892 43.4203 68.2903 43.3126 68.5951 42.989C68.8033 42.7711 68.9224 42.4894 68.9201 42.1935C68.9216 41.742 69.2158 41.3679 69.6387 41.2798L73.2874 40.5199C73.7103 40.4318 74.1332 40.6599 74.311 41.0707C74.4295 41.3391 74.6487 41.5537 74.9266 41.6703C75.3376 41.8416 75.8377 41.744 76.1513 41.4317C76.3859 41.1984 76.5037 40.894 76.4961 40.5728C76.486 40.2555 76.342 39.9595 76.1013 39.7527C75.9447 39.6174 75.8987 39.3964 75.9882 39.2098C76.1239 38.928 76.1339 38.5966 76.0203 38.3041C75.9053 38.0053 75.6696 37.7745 75.3613 37.6543C74.949 37.4932 74.4478 37.6008 74.1431 37.9245C73.9349 38.1424 73.8158 38.4241 73.8181 38.72C73.8166 39.1714 73.5224 39.5456 73.0995 39.6336L69.4508 40.3936C69.0279 40.4816 68.605 40.2536 68.4272 39.8427C68.3383 39.6373 68.1915 39.4703 68.0047 39.3478Z" fill="#FDCD7B"/>
<path d="M206.793 14.6775L206.36 14.4917C206.289 14.0692 206.07 13.7435 205.735 13.5758C205.441 13.4285 205.107 13.4042 204.794 13.508C204.481 13.6119 204.228 13.8313 204.085 14.1166L203.787 14.6658C203.246 14.4717 202.789 14.1721 202.45 13.9509L202.277 13.8381C202.109 13.7318 201.907 13.7244 201.737 13.8183C201.566 13.9133 201.461 14.0972 201.462 14.2985C201.462 14.3222 201.462 14.3459 201.463 14.3693C201.355 14.251 201.258 14.1395 201.174 14.043L201.065 13.917C200.928 13.7623 200.717 13.7108 200.526 13.7881C200.336 13.8643 200.219 14.0455 200.227 14.2501C200.262 15.1237 200.477 17.1166 201.649 18.4266L200.18 18.4984C200.007 18.5107 199.847 18.5958 199.739 18.732C199.635 18.8639 199.591 19.0331 199.618 19.1967C199.707 19.7323 200.138 20.454 200.875 20.772C200.98 20.8176 201.092 20.8407 201.206 20.8407C201.335 20.8407 201.466 20.8115 201.59 20.7517L202.824 20.0959C202.974 20.0158 203.153 20.0022 203.315 20.058C203.571 20.1458 203.839 20.2247 204.31 20.2247C205.457 20.2247 206.39 19.2916 206.39 18.1446C206.39 17.6383 206.388 16.3191 206.386 15.4966L206.794 15.3222C206.923 15.267 207.006 15.1404 207.006 15.0001C207.006 14.8599 206.923 14.7333 206.794 14.6781L206.793 14.6775ZM202.081 14.4461C202.409 14.6602 202.919 14.994 203.49 15.2128L203.288 15.585C202.884 15.5225 202.504 15.3058 202.169 15.0408C202.134 14.9314 202.093 14.7441 202.081 14.4464V14.4461ZM204.309 19.6084C203.932 19.6084 203.735 19.5505 203.515 19.475C203.192 19.364 202.835 19.3921 202.534 19.5517L201.313 20.2013C201.252 20.2306 201.179 20.2327 201.118 20.2062C200.618 19.9896 200.29 19.4836 200.216 19.1138L202.39 19.0075C202.499 19.0019 202.605 18.924 202.656 18.8272C202.726 18.6929 202.688 18.5274 202.567 18.4368C201.296 17.4907 200.959 15.6026 200.87 14.6319C201.42 15.2556 202.326 16.181 203.451 16.2186C203.564 16.2202 203.676 16.1604 203.732 16.0578L204.632 14.402C204.705 14.2547 204.832 14.1453 204.988 14.0932C205.144 14.0411 205.311 14.0535 205.458 14.1271C205.727 14.2621 205.768 14.6085 205.768 14.8026C205.768 14.8026 205.772 17.601 205.772 18.1446C205.772 18.9517 205.116 19.6084 204.309 19.6084H204.309Z" fill="#FF83D1"/>
<path d="M126.806 50.5827H126.405V47.5782C126.405 47.3566 126.226 47.1776 126.005 47.1776C125.784 47.1776 125.604 47.3566 125.604 47.5782V50.5827H124.803V48.1791C124.803 47.9575 124.623 47.7785 124.402 47.7785C124.181 47.7785 124.002 47.9575 124.002 48.1791V50.5827H120.797C120.446 50.5827 120.113 50.5062 119.811 50.37C119.818 50.2963 119.922 49.7346 119.957 49.5483C120.227 48.5176 120.97 47.0117 123.001 46.3996C123.054 46.424 123.108 46.4489 123.16 46.4721C123.421 46.5883 123.667 46.6981 123.873 46.8254C124.036 46.9272 124.22 46.9781 124.404 46.9781C124.588 46.9781 124.772 46.9272 124.935 46.8254C125.141 46.6981 125.387 46.5883 125.648 46.4721C126.342 46.1625 127.206 45.7767 127.206 44.8805C127.206 44.4895 127.055 44.0761 126.808 43.6932L126.811 42.6083C126.811 42.2846 126.63 41.9962 126.338 41.8552C126.047 41.7138 125.708 41.751 125.455 41.9513L125.032 42.2806C124.821 42.2121 124.61 42.1709 124.404 42.1709C124.198 42.1709 123.986 42.2121 123.775 42.281L123.354 41.9513C123.1 41.751 122.761 41.7138 122.47 41.8552C122.179 41.9962 121.998 42.285 121.998 42.6083V43.6956C121.752 44.0781 121.602 44.4908 121.602 44.8809C121.602 45.3192 121.81 45.6341 122.102 45.8788C121.302 46.2306 120.704 46.7137 120.264 47.2421C120.365 46.0839 120.392 44.9971 120.398 44.1843C120.398 44.1807 120.398 43.4055 120.396 43.1672C120.389 42.3972 119.76 41.7703 118.994 41.7703C118.228 41.7703 117.606 42.3888 117.592 43.1551C117.592 43.16 117.592 43.1644 117.592 43.1692V48.1791C117.592 49.9461 119.03 51.3839 120.797 51.3839H126.806C127.027 51.3839 127.206 51.2048 127.206 50.9833C127.206 50.7617 127.027 50.5827 126.806 50.5827ZM126.348 44.5516C125.944 44.3437 125.365 44.1731 125.003 44.1731C124.671 44.1731 124.402 44.4419 124.402 44.7736C124.402 45.1053 124.671 45.3741 125.003 45.3741C125.19 45.3741 125.739 45.3524 126.183 45.2739C125.997 45.4278 125.704 45.5692 125.321 45.7398C125.134 45.8231 124.946 45.9129 124.763 46.0086C124.699 45.8716 124.563 45.7755 124.402 45.7755C124.241 45.7755 124.106 45.8712 124.042 46.007C123.86 45.9121 123.673 45.8231 123.487 45.7402C123.106 45.57 122.813 45.4294 122.627 45.2759C123.07 45.3536 123.615 45.3757 123.801 45.3757C124.133 45.3757 124.402 45.1069 124.402 44.7752C124.402 44.4435 124.133 44.1751 123.801 44.1747C123.441 44.1739 122.866 44.3429 122.462 44.5496C122.705 43.8049 123.674 42.9717 124.404 42.9717C125.135 42.9717 126.106 43.8065 126.348 44.552L126.348 44.5516ZM119.557 45.7755H118.393V44.5737H119.593C119.587 44.9386 119.576 45.3436 119.557 45.7755ZM118.393 46.5767H119.512C119.486 46.9685 119.452 47.3715 119.407 47.7785H118.393V46.5767ZM118.994 42.5707C119.328 42.5707 119.592 42.8355 119.595 43.1736C119.597 43.3298 119.598 43.5353 119.599 43.7725H118.393V43.1816C118.393 42.8391 118.657 42.5707 118.994 42.5707ZM118.429 48.5797H119.306C119.256 48.9294 119.197 49.2759 119.129 49.6148C119.124 49.6341 119.093 49.7967 119.079 49.8592C118.744 49.5163 118.513 49.0724 118.429 48.5797Z" fill="#FDCD7B"/>
<path d="M177.719 19.3584C178.002 19.3584 178.278 19.2745 178.513 19.1174C178.748 18.9603 178.932 18.737 179.04 18.4757C179.148 18.2145 179.176 17.927 179.121 17.6496C179.066 17.3723 178.93 17.1175 178.73 16.9175C178.53 16.7176 178.275 16.5814 177.998 16.5262C177.721 16.471 177.433 16.4994 177.172 16.6076C176.911 16.7158 176.687 16.8991 176.53 17.1342C176.373 17.3693 176.289 17.6458 176.289 17.9286C176.289 18.3078 176.44 18.6715 176.708 18.9396C176.976 19.2078 177.34 19.3584 177.719 19.3584ZM177.719 17.2137C177.86 17.2137 177.999 17.2556 178.116 17.3341C178.234 17.4127 178.325 17.5243 178.379 17.655C178.434 17.7856 178.448 17.9294 178.42 18.068C178.393 18.2067 178.324 18.3341 178.224 18.4341C178.124 18.5341 177.997 18.6022 177.858 18.6298C177.72 18.6573 177.576 18.6432 177.445 18.5891C177.315 18.535 177.203 18.4433 177.125 18.3258C177.046 18.2082 177.004 18.07 177.004 17.9286C177.004 17.739 177.079 17.5571 177.213 17.423C177.347 17.289 177.529 17.2137 177.719 17.2137ZM179.149 22.9437L182.008 23.64V19.8885C182.008 19.6583 181.934 19.4342 181.797 19.2493C181.66 19.0645 181.466 18.9288 181.246 18.8623L180.495 18.612C180.55 18.3891 180.578 18.1603 180.579 17.9307C180.579 17.1723 180.277 16.4449 179.741 15.9086C179.205 15.3723 178.477 15.071 177.719 15.071C176.961 15.071 176.233 15.3723 175.697 15.9086C175.161 16.4449 174.859 17.1723 174.859 17.9307C174.86 18.0758 174.872 18.2206 174.895 18.364C174.733 18.2992 174.557 18.2753 174.383 18.2942C174.21 18.3131 174.043 18.3743 173.898 18.4724C173.754 18.5705 173.635 18.7026 173.554 18.8571C173.472 19.0115 173.429 19.1836 173.429 19.3584V22.8443L176.283 23.6597L179.149 22.9437ZM176.202 16.4144C176.605 16.0172 177.149 15.7952 177.715 15.797C178.28 15.7988 178.823 16.024 179.223 16.4237C179.624 16.8235 179.85 17.3652 179.853 17.931C179.855 18.4969 179.635 19.0409 179.238 19.4446L177.719 20.9312L176.202 19.4474C175.8 19.0452 175.574 18.4997 175.574 17.9309C175.574 17.3621 175.8 16.8166 176.202 16.4144ZM174.144 19.3584C174.144 19.2994 174.158 19.2413 174.186 19.1894C174.214 19.1374 174.254 19.0933 174.304 19.061C174.355 19.0271 174.415 19.0071 174.476 19.0028C174.538 18.9986 174.6 19.0102 174.656 19.0367L175.168 19.2219C175.305 19.4934 175.485 19.7415 175.7 19.9568L177.719 21.9321L179.741 19.9543C179.94 19.7557 180.109 19.5291 180.242 19.2816L181.034 19.5464C181.109 19.5678 181.174 19.6128 181.221 19.6748C181.268 19.7368 181.293 19.8123 181.293 19.8899V22.7314L179.149 22.2074L176.296 22.9223L174.144 22.306V19.3584Z" fill="#FF83D1"/>
<path d="M105.482 13.549C105.578 13.3066 105.623 13.0365 105.59 12.7539L104.818 12.8437C104.868 13.2695 104.617 13.6496 104.26 13.6911L103.239 13.8098C102.882 13.8513 102.551 13.5389 102.501 13.1131L101.729 13.2029C101.762 13.4854 101.868 13.738 102.017 13.9519L101.047 14.0647C101.112 14.6194 101.556 15.0365 102.09 15.0893L102.341 15.8705L99.3418 16.2192C99.0122 16.2576 98.7207 16.4358 98.529 16.7054L98.5273 16.704L97.581 17.8262L98.1749 18.3272L98.3843 18.0787L98.9468 22.916L101.263 22.6467L101.191 22.0283C101.902 21.7949 102.411 21.1743 102.519 20.5443L103.355 20.4472L103.579 22.3774L105.895 22.108L105.536 19.0198L104.764 19.1096L105.033 21.4257L104.261 21.5155L104.037 19.5854L100.177 20.0343L100.401 21.9644L99.6291 22.0542L99.1322 17.7808C99.406 18.0057 99.7646 18.1259 100.145 18.0817C100.825 18.0026 101.324 17.4336 101.342 16.7687L102.584 16.6244L102.789 17.2617C102.686 17.4114 102.632 17.5953 102.654 17.7899C102.704 18.2165 103.09 18.5218 103.516 18.4722L105.06 18.2926C105.487 18.243 105.792 17.8574 105.743 17.4308C105.72 17.2362 105.625 17.0696 105.491 16.9475L105.672 14.6721C106.18 14.4984 106.516 13.9906 106.452 13.4358L105.482 13.5486L105.482 13.549ZM103.33 14.5818L104.35 14.4631C104.562 14.4385 104.755 14.3608 104.926 14.2487L104.726 16.7669L103.493 16.9103L102.72 14.5052C102.912 14.5752 103.118 14.6064 103.33 14.5817L103.33 14.5818Z" fill="#FF83D1"/>
<path d="M78.1729 18.6216C78.1729 18.6216 82.711 21.3108 85.5685 26.0173C82.9344 23.5792 80.4738 21.1059 78.1729 18.6216ZM85.5575 22.9357C83.8737 19.7001 81.2433 18.6216 81.2433 18.6216C82.5782 20.1734 84.0188 21.6085 85.5575 22.9357ZM78.1729 21.395C79.6221 23.0057 81.1669 24.5437 82.7952 26.0173C81.1003 22.6276 78.1729 21.395 78.1729 21.395Z" fill="white"/>
<path d="M176.388 51.0146C176.388 51.0146 179.077 46.4765 183.783 43.619C181.345 46.2531 178.872 48.7137 176.388 51.0146ZM180.702 43.63C177.466 45.3138 176.388 47.9442 176.388 47.9442C177.94 46.6093 179.375 45.1687 180.702 43.63ZM179.161 51.0146C180.772 49.5654 182.31 48.0206 183.783 46.3923C180.394 48.0872 179.161 51.0146 179.161 51.0146Z" fill="white"/>
<rect x="170.175" y="19.8049" width="1.77497" height="2.81037" fill="#05616E"/>
</svg>
